<svg xmlns="http://www.w3.org/2000/svg" width="800" height="400" viewBox="0 0 800 400">
  <!-- 背景 -->
  <rect width="800" height="400" fill="#ffffff"/>
  
  <!-- 明善书法 -->
  <g transform="translate(100, 100) scale(0.8)">
    <!-- 明字 -->
    <path d="M50,20 Q80,5 120,30 Q140,45 130,80 Q120,100 100,110 Q70,120 60,140 Q50,160 70,180 Q90,200 110,190 Q130,180 140,160 Q150,140 130,120 Q110,100 90,90 Q70,80 60,100 Q50,120 60,140 Q70,160 90,170 Q110,180 130,170 Q150,160 160,140 Q170,120 150,100 Q130,80 110,80 Q90,80 80,100 Q70,120 80,140 Q90,160 110,170 Q130,180 150,170 Q170,160 180,140 Q190,120 180,100 Q170,80 150,70 Q130,60 110,60 Q90,60 70,70 Q50,80 40,100 Q30,120 40,140 Q50,160 70,170 Q90,180 110,180 Q130,180 150,170 Q170,160 180,140 Q190,120 180,100 Q170,80 150,70 Q130,60 110,60 Q90,60 70,70 Q50,80 40,100 Q30,120 40,140 Q50,160 70,170 Q90,180 110,180" fill="none" stroke="#000000" stroke-width="8" stroke-linecap="round" stroke-linejoin="round"/>
    
    <!-- 善字 -->
    <path d="M200,20 Q230,5 270,30 Q290,45 280,80 Q270,100 250,110 Q220,120 210,140 Q200,160 220,180 Q240,200 260,190 Q280,180 290,160 Q300,140 280,120 Q260,100 240,90 Q220,80 210,100 Q200,120 210,140 Q220,160 240,170 Q260,180 280,170 Q300,160 310,140 Q320,120 300,100 Q280,80 260,80 Q240,80 230,100 Q220,120 230,140 Q240,160 260,170 Q280,180 300,180 Q320,180 340,170 Q360,160 370,140 Q380,120 370,100 Q360,80 340,70 Q320,60 300,60 Q280,60 260,70 Q240,80 230,100 Q220,120 230,140 Q240,160 260,170 Q280,180 300,180 Q320,180 340,170 Q360,160 370,140 Q380,120 370,100 Q360,80 340,70 Q320,60 300,60" fill="none" stroke="#000000" stroke-width="8" stroke-linecap="round" stroke-linejoin="round"/>
  </g>
  
  <!-- 心理咨询工作室 -->
  <text x="400" y="280" font-family="SimHei, Arial" font-size="36" font-weight="bold" text-anchor="middle" fill="#000000">心理咨询工作室</text>
  
  <!-- Psychology room -->
  <text x="400" y="330" font-family="Arial" font-size="24" text-anchor="middle" fill="#000000">Psychology room</text>
  
  <!-- 红印章 -->
  <g transform="translate(550, 120)">
    <circle cx="0" cy="0" r="30" fill="#e74c3c"/>
    <text x="0" y="5" font-family="SimHei" font-size="18" text-anchor="middle" fill="#ffffff">明善</text>
  </g>
</svg>