<?xml version="1.0" standalone="no"?>
<!DOCTYPE svg PUBLIC "-//W3C//DTD SVG 20010904//EN"
 "http://www.w3.org/TR/2001/REC-SVG-20010904/DTD/svg10.dtd">
<svg version="1.0" xmlns="http://www.w3.org/2000/svg"
 width="739.000000pt" height="420.000000pt" viewBox="0 0 739.000000 420.000000"
 preserveAspectRatio="xMidYMid meet">

<g transform="translate(0.000000,420.000000) scale(0.100000,-0.100000)"
fill="#000000" stroke="none">
<path d="M6434 3963 c-9 -21 -28 -78 -44 -126 -37 -113 -125 -249 -251 -385
-24 -26 -89 -96 -144 -157 -55 -60 -144 -153 -197 -208 -140 -141 -208 -230
-208 -272 0 -22 54 -45 107 -45 58 0 236 28 378 60 81 18 232 30 277 22 l43
-8 -2 -48 c-2 -78 -24 -113 -180 -285 -131 -145 -209 -220 -300 -289 -80 -61
-83 -64 -83 -104 l0 -41 77 7 c42 4 102 14 132 22 106 30 126 34 206 49 122
22 225 19 225 -7 0 -39 -188 -206 -411 -366 -63 -45 -163 -118 -224 -162 -177
-129 -293 -208 -400 -273 -138 -83 -153 -91 -208 -112 -46 -17 -48 -19 -45
-54 3 -35 4 -36 38 -33 39 4 140 30 270 69 87 26 311 77 410 93 264 42 587 67
625 48 52 -27 55 -35 55 -152 1 -185 29 -848 39 -901 5 -27 12 -58 16 -67 8
-21 44 -23 69 -5 17 12 18 28 12 193 -3 98 -9 347 -12 551 l-6 373 23 9 c13 5
49 12 79 16 188 24 289 67 317 132 22 55 17 173 -13 250 -49 130 -106 309
-139 438 -127 498 -161 575 -250 575 -28 0 -34 -5 -52 -47 -26 -59 -43 -150
-43 -229 -1 -32 -5 -90 -10 -128 -12 -97 -25 -106 -150 -103 -52 1 -139 0
-192 -2 -53 -1 -102 0 -108 4 -9 5 35 58 194 230 89 97 146 210 146 293 0 83
-16 119 -63 145 -38 20 -55 22 -182 21 -105 -1 -160 -6 -220 -21 -167 -43
-210 -48 -235 -30 l-24 17 130 132 c72 73 149 153 171 178 22 25 69 77 104
116 85 94 224 272 254 326 23 41 75 230 75 273 0 21 -31 55 -50 55 -5 0 -17
-17 -26 -37z m334 -1470 c5 -10 19 -58 32 -108 62 -249 130 -458 204 -623 38
-84 46 -113 46 -162 0 -53 -3 -61 -28 -79 -44 -31 -108 -42 -217 -39 l-100 3
1 320 c1 317 16 673 28 694 10 16 24 13 34 -6z m-183 -506 c-2 -412 -5 -477
-23 -495 -16 -16 -43 -20 -198 -25 -169 -7 -342 -23 -485 -46 -35 -6 -72 -11
-81 -11 -40 0 -12 33 85 101 102 72 131 93 282 205 134 99 248 198 321 278 38
42 76 75 84 74 12 -3 15 -20 15 -81z"/>
<path d="M5694 3933 c-31 -31 -8 -280 37 -393 23 -61 89 -59 89 3 0 18 -7 52
-16 77 -9 25 -20 88 -25 140 -14 136 -18 158 -35 175 -20 19 -29 19 -50 -2z"/>
<path d="M1635 3726 c-24 -32 -25 -38 -25 -183 0 -83 -5 -165 -11 -184 -20
-60 -20 -60 -294 -141 -38 -11 -122 -38 -185 -58 -115 -38 -158 -49 -260 -71
-113 -23 -265 -87 -309 -129 -23 -22 -23 -24 -5 -37 28 -20 53 -16 160 28 54
22 160 54 234 71 74 16 180 45 235 63 202 67 360 115 376 115 37 0 44 -28 44
-169 l0 -136 -33 -17 c-18 -9 -42 -24 -53 -34 -20 -18 -26 -54 -9 -54 5 0 28
-16 50 -36 40 -36 40 -37 40 -108 0 -39 -5 -118 -10 -176 -6 -58 -15 -152 -21
-210 -22 -226 -30 -259 -64 -286 -24 -18 -44 -24 -82 -24 -93 0 -374 -113
-436 -174 -17 -18 -11 -66 9 -66 7 0 48 14 91 31 78 31 191 68 270 89 36 9 52
7 105 -11 59 -20 74 -20 154 -4 27 6 33 2 57 -32 24 -34 27 -49 27 -119 0 -71
-16 -174 -35 -229 -20 -59 -144 -324 -173 -370 -14 -22 -41 -60 -62 -85 -76
-94 -111 -183 -130 -333 -20 -161 22 -277 117 -326 64 -33 249 -21 397 26 194
61 387 194 429 296 26 60 30 112 13 145 -40 78 -126 95 -446 90 -145 -2 -223
1 -230 8 -37 37 61 152 175 205 81 38 214 59 366 59 130 0 179 11 179 41 0 9
-8 23 -18 32 -16 15 -44 17 -188 16 -93 0 -191 -4 -219 -9 -113 -21 -154 -23
-160 -8 -3 8 10 54 29 104 69 179 89 368 51 471 -14 41 -34 66 -88 114 l-69
62 6 51 c4 28 11 76 15 106 5 30 16 129 25 220 32 315 35 342 41 348 10 10 91
-35 156 -89 35 -29 116 -103 179 -165 161 -157 301 -279 406 -352 71 -49 207
-122 285 -152 131 -51 224 -41 200 23 -8 19 -21 29 -53 37 -107 27 -274 117
-429 231 -48 35 -169 143 -270 240 -239 229 -300 282 -379 329 -107 63 -105
59 -105 245 0 219 -11 205 232 284 219 72 346 121 373 146 11 10 20 31 20 47
0 34 -6 37 -140 68 -122 28 -173 44 -293 92 -54 21 -129 47 -167 57 l-70 20
-25 -33z m170 -102 c73 -31 174 -67 235 -84 76 -20 92 -29 88 -47 -2 -12 -52
-33 -183 -75 -190 -61 -229 -68 -239 -42 -9 24 -20 240 -13 258 9 23 42 20
112 -10z m-308 -2836 c18 -7 134 -14 330 -17 265 -5 304 -8 319 -23 53 -53
-105 -186 -326 -276 -92 -37 -139 -50 -266 -72 -65 -11 -116 1 -143 34 -22 26
-25 127 -7 231 24 139 31 149 93 123z"/>
<path d="M1232 2764 c-51 -26 -116 -89 -168 -162 -26 -37 -72 -101 -103 -142
-30 -41 -71 -97 -91 -125 -177 -242 -459 -662 -585 -870 -43 -71 -99 -161
-125 -200 -59 -89 -77 -132 -61 -148 7 -7 19 -8 38 -1 29 10 51 39 178 239 97
153 495 745 558 830 29 39 108 149 177 245 68 96 140 188 159 205 117 103 115
100 100 123 -16 26 -33 27 -77 6z"/>
<path d="M4702 2698 c-27 -27 -12 -47 60 -85 67 -35 117 -77 191 -161 33 -37
47 -40 73 -11 18 20 18 21 -5 65 -34 64 -111 131 -196 170 -79 36 -104 41
-123 22z"/>
<path d="M4750 1983 c-59 -21 -80 -37 -80 -58 0 -14 7 -26 18 -29 9 -3 81 -5
159 -4 107 1 148 5 163 15 32 22 22 56 -20 70 -35 12 -212 16 -240 6z"/>
<path d="M5165 1683 c-14 -21 -58 -87 -97 -148 -72 -112 -92 -139 -157 -210
-132 -147 -201 -242 -201 -278 0 -30 23 -52 44 -40 37 20 330 342 384 421 63
92 132 220 132 245 0 20 -33 47 -58 47 -14 0 -31 -13 -47 -37z"/>
</g>
</svg>
